# xmcd
#
# Track frame offsets: 
#        150
#        13964
#        35189
#        48604
#        60689
#        71546
#        83384
#        96906
#        113491
#        121831
#        131824
#        143076
#        154981
#        167546
#        184126
#        196851
#        211641
#        222129
#        235076
#        248866
#
# Disc length: 3513 seconds
#
# Revision: 0
# Processed by: cddbd v1.5.2PL0 Copyright (c) Steve Scherf et al.
# Submitted via: ExactAudioCopy v1.3
#
DISCID=160db714
DTITLE=The Fabulous Thunderbirds - The Essential Fabulous Thunderb
DYEAR=1991
DGENRE=Blues Rock
TTITLE0=Wait On Time
TTITLE1=Full-Time Lover
TTITLE2=She's Tuff
TTITLE3=Marked Deck
TTITLE4=Walkin' To My Baby
TTITLE5=Rock With Me
TTITLE6=C-Boy's Blues
TTITLE7=Runnin' Shoes
TTITLE8=You Ain't Nothin' But Fine
TTITLE9=The Crawl
TTITLE10=I Believe I'm In Love
TTITLE11=One's Too  Many
TTITLE12=Give Me All You Lovin'
TTITLE13=Tip On In
TTITLE14=I'm Sorry
TTITLE15=Mathilda
TTITLE16=How Do You Spell Love
TTITLE17=My Babe
TTITLE18=Can't Tear It Up Enuff
TTITLE19=The Monkey
EXTD=
EXTT0=
EXTT1=
EXTT2=
EXTT3=
EXTT4=
EXTT5=
EXTT6=
EXTT7=
EXTT8=
EXTT9=
EXTT10=
EXTT11=
EXTT12=
EXTT13=
EXTT14=
EXTT15=
EXTT16=
EXTT17=
EXTT18=
EXTT19=
PLAYORDER=
